<svg xmlns="http://www.w3.org/2000/svg" viewBox="0 0 1600 900" preserveAspectRatio="xMidYMid slice">
  <defs>
    <radialGradient id="bg" cx="50%" cy="50%" r="75%">
      <stop offset="0%" stop-color="#5c2a1a"/>
      <stop offset="60%" stop-color="#2a1410"/>
      <stop offset="100%" stop-color="#1a0e0e"/>
    </radialGradient>
    <radialGradient id="core" cx="50%" cy="50%" r="50%">
      <stop offset="0%" stop-color="#fbbf24" stop-opacity="1"/>
      <stop offset="35%" stop-color="#d97706" stop-opacity="0.95"/>
      <stop offset="70%" stop-color="#c2410c" stop-opacity="0.7"/>
      <stop offset="100%" stop-color="#9a3309" stop-opacity="0"/>
    </radialGradient>
    <linearGradient id="shard1" x1="0%" y1="0%" x2="100%" y2="100%">
      <stop offset="0%" stop-color="#d97706" stop-opacity="0.85"/>
      <stop offset="100%" stop-color="#6d28d9" stop-opacity="0.15"/>
    </linearGradient>
    <linearGradient id="shard2" x1="0%" y1="0%" x2="100%" y2="0%">
      <stop offset="0%" stop-color="#c2410c" stop-opacity="0.8"/>
      <stop offset="100%" stop-color="#78350f" stop-opacity="0.1"/>
    </linearGradient>
    <linearGradient id="shard3" x1="0%" y1="100%" x2="100%" y2="0%">
      <stop offset="0%" stop-color="#9a3309" stop-opacity="0.75"/>
      <stop offset="100%" stop-color="#6d28d9" stop-opacity="0.2"/>
    </linearGradient>
  </defs>

  <rect width="1600" height="900" fill="url(#bg)"/>

  <g opacity="0.35" stroke="#6d28d9" fill="none" stroke-width="1.2">
    <circle cx="800" cy="450" r="280"/>
    <circle cx="800" cy="450" r="360"/>
  </g>
  <g opacity="0.5" stroke="#c2410c" fill="none" stroke-width="1.5">
    <circle cx="800" cy="450" r="190"/>
  </g>

  <polygon points="800,450 1180,250 1240,310 820,470" fill="url(#shard2)" opacity="0.85"/>
  <polygon points="800,450 1100,720 1040,760 780,480" fill="url(#shard1)" opacity="0.8"/>
  <polygon points="800,450 420,320 380,380 770,460" fill="url(#shard3)" opacity="0.78"/>

  <circle cx="800" cy="450" r="170" fill="url(#core)"/>
  <circle cx="800" cy="450" r="55" fill="#fef3ec" opacity="0.85"/>
  <circle cx="800" cy="450" r="22" fill="#fbbf24"/>

  <g opacity="0.7" fill="#fbbf24">
    <circle cx="1180" cy="250" r="6"/>
    <circle cx="1100" cy="720" r="6"/>
    <circle cx="420" cy="320" r="6"/>
  </g>

  <g opacity="0.25" stroke="#6d28d9" stroke-width="0.8" fill="none">
    <path d="M 800 450 Q 950 380 1180 250"/>
    <path d="M 800 450 Q 880 600 1100 720"/>
    <path d="M 800 450 Q 620 410 420 320"/>
  </g>
</svg>
