<svg xmlns="http://www.w3.org/2000/svg" viewBox="0 0 1600 900" preserveAspectRatio="xMidYMid slice">
  <defs>
    <linearGradient id="sky" x1="0" y1="0" x2="0" y2="1">
      <stop offset="0" stop-color="#fef3ec"/>
      <stop offset="0.55" stop-color="#fbbf24"/>
      <stop offset="1" stop-color="#d97706"/>
    </linearGradient>
    <radialGradient id="sun" cx="0.5" cy="0.5" r="0.5">
      <stop offset="0" stop-color="#fef3ec"/>
      <stop offset="0.5" stop-color="#fbbf24"/>
      <stop offset="1" stop-color="#fbbf24" stop-opacity="0"/>
    </radialGradient>
    <linearGradient id="m1" x1="0" y1="0" x2="0" y2="1">
      <stop offset="0" stop-color="#d97706"/>
      <stop offset="1" stop-color="#c2410c"/>
    </linearGradient>
    <linearGradient id="m2" x1="0" y1="0" x2="0" y2="1">
      <stop offset="0" stop-color="#9a3309"/>
      <stop offset="1" stop-color="#78350f"/>
    </linearGradient>
    <linearGradient id="m3" x1="0" y1="0" x2="0" y2="1">
      <stop offset="0" stop-color="#5c2a1a"/>
      <stop offset="1" stop-color="#1a0e0e"/>
    </linearGradient>
    <linearGradient id="path" x1="0" y1="0" x2="0" y2="1">
      <stop offset="0" stop-color="#fef3ec" stop-opacity="0.9"/>
      <stop offset="1" stop-color="#fbbf24" stop-opacity="0.4"/>
    </linearGradient>
  </defs>

  <rect width="1600" height="900" fill="url(#sky)"/>

  <circle cx="800" cy="430" r="280" fill="url(#sun)" opacity="0.85"/>
  <circle cx="800" cy="430" r="120" fill="#fef3ec" opacity="0.95"/>

  <path d="M0,560 L180,500 L320,540 L480,470 L640,510 L820,460 L980,500 L1180,450 L1340,490 L1500,460 L1600,470 L1600,900 L0,900 Z" fill="url(#m1)" opacity="0.85"/>

  <path d="M0,640 L160,600 L300,650 L460,580 L620,630 L780,570 L940,620 L1120,560 L1280,610 L1440,580 L1600,620 L1600,900 L0,900 Z" fill="url(#m2)" opacity="0.9"/>

  <path d="M0,740 L140,710 L280,750 L440,690 L600,730 L780,680 L940,720 L1100,690 L1280,730 L1440,700 L1600,730 L1600,900 L0,900 Z" fill="url(#m3)" opacity="0.92"/>

  <path d="M800,900 Q820,820 760,780 Q700,740 780,690 Q860,640 800,590 Q740,550 800,500" stroke="url(#path)" stroke-width="14" fill="none" stroke-linecap="round" opacity="0.75"/>

  <path d="M120,200 Q160,180 200,200 Q240,220 280,200" stroke="#9a3309" stroke-width="3" fill="none" opacity="0.5"/>
  <path d="M1320,180 Q1360,160 1400,180 Q1440,200 1480,180" stroke="#9a3309" stroke-width="3" fill="none" opacity="0.5"/>
</svg>
